<svg xmlns="http://www.w3.org/2000/svg" xmlns:xlink="http://www.w3.org/1999/xlink" version="1.1" x="0px" y="0px" viewBox="0 0 100 100" enable-background="new 0 0 100 100" xml:space="preserve"><g><path d="M40,10v30H10V10H40 M45,5H5v40h40V5L45,5z"/></g><g><path d="M90,10v30H60V10H90 M95,5H55v40h40V5L95,5z"/></g><g><path d="M40,60v30H10V60H40 M45,55H5v40h40V55L45,55z"/></g><g><path d="M70,80v10H60V80H70 M75,75H55v20h20V75L75,75z"/></g><g><path d="M90,60v10H80V60H90 M95,55H75v20h20V55L95,55z"/></g><rect x="20" y="20" stroke="#000000" stroke-width="5" stroke-linecap="round" stroke-miterlimit="10" width="10" height="10"/><rect x="70" y="20" stroke="#000000" stroke-width="5" stroke-linecap="round" stroke-miterlimit="10" width="10" height="10"/><rect x="20" y="70" stroke="#000000" stroke-width="5" stroke-linecap="round" stroke-miterlimit="10" width="10" height="10"/></svg>